<svg id="visual" viewBox="0 0 900 600" width="900" height="600" xmlns="http://www.w3.org/2000/svg" xmlns:xlink="http://www.w3.org/1999/xlink" version="1.1"><rect x="0" y="0" width="900" height="600" fill="#200320"></rect><defs><linearGradient id="grad1_0" x1="33.3%" y1="0%" x2="100%" y2="100%"><stop offset="20%" stop-color="#f73cfa" stop-opacity="1"></stop><stop offset="80%" stop-color="#f73cfa" stop-opacity="1"></stop></linearGradient></defs><defs><linearGradient id="grad1_1" x1="33.3%" y1="0%" x2="100%" y2="100%"><stop offset="20%" stop-color="#f73cfa" stop-opacity="1"></stop><stop offset="80%" stop-color="#d434d7" stop-opacity="1"></stop></linearGradient></defs><defs><linearGradient id="grad1_2" x1="33.3%" y1="0%" x2="100%" y2="100%"><stop offset="20%" stop-color="#b22db6" stop-opacity="1"></stop><stop offset="80%" stop-color="#d434d7" stop-opacity="1"></stop></linearGradient></defs><defs><linearGradient id="grad1_3" x1="33.3%" y1="0%" x2="100%" y2="100%"><stop offset="20%" stop-color="#b22db6" stop-opacity="1"></stop><stop offset="80%" stop-color="#912595" stop-opacity="1"></stop></linearGradient></defs><defs><linearGradient id="grad1_4" x1="33.3%" y1="0%" x2="100%" y2="100%"><stop offset="20%" stop-color="#721e75" stop-opacity="1"></stop><stop offset="80%" stop-color="#912595" stop-opacity="1"></stop></linearGradient></defs><defs><linearGradient id="grad1_5" x1="33.3%" y1="0%" x2="100%" y2="100%"><stop offset="20%" stop-color="#721e75" stop-opacity="1"></stop><stop offset="80%" stop-color="#541657" stop-opacity="1"></stop></linearGradient></defs><defs><linearGradient id="grad1_6" x1="33.3%" y1="0%" x2="100%" y2="100%"><stop offset="20%" stop-color="#390e3a" stop-opacity="1"></stop><stop offset="80%" stop-color="#541657" stop-opacity="1"></stop></linearGradient></defs><defs><linearGradient id="grad1_7" x1="33.3%" y1="0%" x2="100%" y2="100%"><stop offset="20%" stop-color="#390e3a" stop-opacity="1"></stop><stop offset="80%" stop-color="#200320" stop-opacity="1"></stop></linearGradient></defs><defs><linearGradient id="grad2_0" x1="0%" y1="0%" x2="66.7%" y2="100%"><stop offset="20%" stop-color="#f73cfa" stop-opacity="1"></stop><stop offset="80%" stop-color="#f73cfa" stop-opacity="1"></stop></linearGradient></defs><defs><linearGradient id="grad2_1" x1="0%" y1="0%" x2="66.7%" y2="100%"><stop offset="20%" stop-color="#d434d7" stop-opacity="1"></stop><stop offset="80%" stop-color="#f73cfa" stop-opacity="1"></stop></linearGradient></defs><defs><linearGradient id="grad2_2" x1="0%" y1="0%" x2="66.7%" y2="100%"><stop offset="20%" stop-color="#d434d7" stop-opacity="1"></stop><stop offset="80%" stop-color="#b22db6" stop-opacity="1"></stop></linearGradient></defs><defs><linearGradient id="grad2_3" x1="0%" y1="0%" x2="66.7%" y2="100%"><stop offset="20%" stop-color="#912595" stop-opacity="1"></stop><stop offset="80%" stop-color="#b22db6" stop-opacity="1"></stop></linearGradient></defs><defs><linearGradient id="grad2_4" x1="0%" y1="0%" x2="66.7%" y2="100%"><stop offset="20%" stop-color="#912595" stop-opacity="1"></stop><stop offset="80%" stop-color="#721e75" stop-opacity="1"></stop></linearGradient></defs><defs><linearGradient id="grad2_5" x1="0%" y1="0%" x2="66.7%" y2="100%"><stop offset="20%" stop-color="#541657" stop-opacity="1"></stop><stop offset="80%" stop-color="#721e75" stop-opacity="1"></stop></linearGradient></defs><defs><linearGradient id="grad2_6" x1="0%" y1="0%" x2="66.7%" y2="100%"><stop offset="20%" stop-color="#541657" stop-opacity="1"></stop><stop offset="80%" stop-color="#390e3a" stop-opacity="1"></stop></linearGradient></defs><defs><linearGradient id="grad2_7" x1="0%" y1="0%" x2="66.7%" y2="100%"><stop offset="20%" stop-color="#200320" stop-opacity="1"></stop><stop offset="80%" stop-color="#390e3a" stop-opacity="1"></stop></linearGradient></defs><g transform="translate(900, 0)"><path d="M0 486.7C-70.7 487.4 -141.3 488.1 -186.3 449.7C-231.2 411.3 -250.4 333.8 -282.8 282.8C-315.3 231.8 -361.1 207.3 -397.3 164.6C-433.5 121.8 -460.1 60.9 -486.7 0L0 0Z" fill="#2b0a2d"></path><path d="M0 425.9C-61.8 426.5 -123.7 427.1 -163 393.5C-202.3 359.9 -219.1 292.1 -247.5 247.5C-275.9 202.9 -315.9 181.4 -347.6 144C-379.3 106.6 -402.6 53.3 -425.9 0L0 0Z" fill="#461248"></path><path d="M0 365.1C-53 365.6 -106 366.1 -139.7 337.3C-173.4 308.5 -187.8 250.4 -212.1 212.1C-236.5 173.9 -270.8 155.5 -298 123.4C-325.1 91.4 -345.1 45.7 -365.1 0L0 0Z" fill="#631a66"></path><path d="M0 304.2C-44.2 304.6 -88.3 305.1 -116.4 281.1C-144.5 257.1 -156.5 208.7 -176.8 176.8C-197.1 144.9 -225.7 129.6 -248.3 102.8C-270.9 76.1 -287.6 38.1 -304.2 0L0 0Z" fill="#822185"></path><path d="M0 243.4C-35.3 243.7 -70.7 244 -93.1 224.8C-115.6 205.7 -125.2 166.9 -141.4 141.4C-157.7 115.9 -180.5 103.6 -198.6 82.3C-216.7 60.9 -230.1 30.5 -243.4 0L0 0Z" fill="#a229a5"></path><path d="M0 182.5C-26.5 182.8 -53 183 -69.9 168.6C-86.7 154.2 -93.9 125.2 -106.1 106.1C-118.2 86.9 -135.4 77.7 -149 61.7C-162.6 45.7 -172.5 22.8 -182.5 0L0 0Z" fill="#c331c6"></path><path d="M0 121.7C-17.7 121.9 -35.3 122 -46.6 112.4C-57.8 102.8 -62.6 83.5 -70.7 70.7C-78.8 58 -90.3 51.8 -99.3 41.1C-108.4 30.5 -115 15.2 -121.7 0L0 0Z" fill="#e538e9"></path><path d="M0 60.8C-8.8 60.9 -17.7 61 -23.3 56.2C-28.9 51.4 -31.3 41.7 -35.4 35.4C-39.4 29 -45.1 25.9 -49.7 20.6C-54.2 15.2 -57.5 7.6 -60.8 0L0 0Z" fill="#f73cfa"></path></g><g transform="translate(0, 600)"><path d="M0 -486.7C47.9 -442.2 95.8 -397.7 157.7 -380.6C219.5 -363.6 295.3 -374.1 344.2 -344.2C393 -314.3 415 -244 434.2 -179.9C453.5 -115.8 470.1 -57.9 486.7 0L0 0Z" fill="#2b0a2d"></path><path d="M0 -425.9C41.9 -386.9 83.8 -348 138 -333.1C192.1 -318.2 258.4 -327.3 301.2 -301.2C343.9 -275 363.1 -213.5 379.9 -157.4C396.8 -101.3 411.4 -50.6 425.9 0L0 0Z" fill="#461248"></path><path d="M0 -365.1C35.9 -331.7 71.9 -298.2 118.2 -285.5C164.6 -272.7 221.5 -280.6 258.1 -258.1C294.8 -235.7 311.2 -183 325.7 -134.9C340.1 -86.8 352.6 -43.4 365.1 0L0 0Z" fill="#631a66"></path><path d="M0 -304.2C29.9 -276.4 59.9 -248.5 98.5 -237.9C137.2 -227.3 184.6 -233.8 215.1 -215.1C245.7 -196.4 259.3 -152.5 271.4 -112.4C283.4 -72.4 293.8 -36.2 304.2 0L0 0Z" fill="#822185"></path><path d="M0 -243.4C24 -221.1 47.9 -198.8 78.8 -190.3C109.8 -181.8 147.7 -187 172.1 -172.1C196.5 -157.1 207.5 -122 217.1 -89.9C226.7 -57.9 235.1 -28.9 243.4 0L0 0Z" fill="#a229a5"></path><path d="M0 -182.5C18 -165.8 35.9 -149.1 59.1 -142.7C82.3 -136.4 110.7 -140.3 129.1 -129.1C147.4 -117.9 155.6 -91.5 162.8 -67.4C170.1 -43.4 176.3 -21.7 182.5 0L0 0Z" fill="#c331c6"></path><path d="M0 -121.7C12 -110.6 24 -99.4 39.4 -95.2C54.9 -90.9 73.8 -93.5 86 -86C98.3 -78.6 103.7 -61 108.6 -45C113.4 -28.9 117.5 -14.5 121.7 0L0 0Z" fill="#e538e9"></path><path d="M0 -60.8C6 -55.3 12 -49.7 19.7 -47.6C27.4 -45.5 36.9 -46.8 43 -43C49.1 -39.3 51.9 -30.5 54.3 -22.5C56.7 -14.5 58.8 -7.2 60.8 0L0 0Z" fill="#f73cfa"></path></g></svg>