<svg id="visual" viewBox="0 0 900 675" width="900" height="675" xmlns="http://www.w3.org/2000/svg" xmlns:xlink="http://www.w3.org/1999/xlink" version="1.1"><rect x="0" y="0" width="900" height="675" fill="#001220"></rect><defs><linearGradient id="grad1_0" x1="25%" y1="0%" x2="100%" y2="100%"><stop offset="23.333333333333336%" stop-color="#001220" stop-opacity="1"></stop><stop offset="76.66666666666666%" stop-color="#001220" stop-opacity="1"></stop></linearGradient></defs><defs><linearGradient id="grad2_0" x1="0%" y1="0%" x2="75%" y2="100%"><stop offset="23.333333333333336%" stop-color="#001220" stop-opacity="1"></stop><stop offset="76.66666666666666%" stop-color="#001220" stop-opacity="1"></stop></linearGradient></defs><g transform="translate(900, 0)"><path d="M0 506.3C-74.3 507.2 -148.5 508.2 -193.7 467.7C-239 427.3 -255.1 345.4 -294.9 294.9C-334.6 244.3 -397.8 224.9 -437 181C-476.1 137.1 -491.2 68.5 -506.2 0L0 0Z" fill="#c500ff"></path></g><g transform="translate(0, 675)"><path d="M0 -506.2C46.2 -456.6 92.5 -406.9 162.3 -391.7C232 -376.5 325.4 -395.8 358 -358C390.6 -320.2 362.4 -225.3 376.9 -156.1C391.5 -87 448.9 -43.5 506.3 0L0 0Z" fill="#c500ff"></path></g></svg>