<svg id="visual" viewBox="0 0 960 540" width="960" height="540" xmlns="http://www.w3.org/2000/svg" xmlns:xlink="http://www.w3.org/1999/xlink" version="1.1"><rect x="0" y="0" width="960" height="540" fill="#0c111b"></rect><path d="M0 449L16 451.8C32 454.7 64 460.3 96 461.5C128 462.7 160 459.3 192 464.3C224 469.3 256 482.7 288 461.3C320 440 352 384 384 373.7C416 363.3 448 398.7 480 406.3C512 414 544 394 576 383.8C608 373.7 640 373.3 672 391.3C704 409.3 736 445.7 768 461.2C800 476.7 832 471.3 864 446.3C896 421.3 928 376.7 944 354.3L960 332L960 541L944 541C928 541 896 541 864 541C832 541 800 541 768 541C736 541 704 541 672 541C640 541 608 541 576 541C544 541 512 541 480 541C448 541 416 541 384 541C352 541 320 541 288 541C256 541 224 541 192 541C160 541 128 541 96 541C64 541 32 541 16 541L0 541Z" fill="#864bdf" stroke-linecap="round" stroke-linejoin="miter"></path></svg>